<?xml version="1.0" standalone="no"?><svg xmlns="http://www.w3.org/2000/svg" viewBox="0 0 1440 320"><path fill="#D4EDF4" fill-opacity="1" d="M0,192L8,181.3C16,171,32,149,48,149.3C64,149,80,171,96,165.3C112,160,128,128,144,128C160,128,176,160,192,176C208,192,224,192,240,186.7C256,181,272,171,288,170.7C304,171,320,181,336,154.7C352,128,368,64,384,53.3C400,43,416,85,432,133.3C448,181,464,235,480,234.7C496,235,512,181,528,176C544,171,560,213,576,208C592,203,608,149,624,149.3C640,149,656,203,672,213.3C688,224,704,192,720,165.3C736,139,752,117,768,96C784,75,800,53,816,58.7C832,64,848,96,864,117.3C880,139,896,149,912,138.7C928,128,944,96,960,122.7C976,149,992,235,1008,250.7C1024,267,1040,213,1056,186.7C1072,160,1088,160,1104,138.7C1120,117,1136,75,1152,80C1168,85,1184,139,1200,165.3C1216,192,1232,192,1248,165.3C1264,139,1280,85,1296,101.3C1312,117,1328,203,1344,229.3C1360,256,1376,224,1392,218.7C1408,213,1424,235,1432,245.3L1440,256L1440,320L1432,320C1424,320,1408,320,1392,320C1376,320,1360,320,1344,320C1328,320,1312,320,1296,320C1280,320,1264,320,1248,320C1232,320,1216,320,1200,320C1184,320,1168,320,1152,320C1136,320,1120,320,1104,320C1088,320,1072,320,1056,320C1040,320,1024,320,1008,320C992,320,976,320,960,320C944,320,928,320,912,320C896,320,880,320,864,320C848,320,832,320,816,320C800,320,784,320,768,320C752,320,736,320,720,320C704,320,688,320,672,320C656,320,640,320,624,320C608,320,592,320,576,320C560,320,544,320,528,320C512,320,496,320,480,320C464,320,448,320,432,320C416,320,400,320,384,320C368,320,352,320,336,320C320,320,304,320,288,320C272,320,256,320,240,320C224,320,208,320,192,320C176,320,160,320,144,320C128,320,112,320,96,320C80,320,64,320,48,320C32,320,16,320,8,320L0,320Z"></path></svg>